<mxfile host="app.diagrams.net" agent="Mozilla/5.0 (Windows NT 10.0; Win64; x64) AppleWebKit/537.36 (KHTML, like Gecko) Chrome/139.0.0.0 Safari/537.36 Edg/139.0.0.0" version="28.1.0">
  <diagram name="Voice IVR Diagram" id="ChWAFrYFNB-xbfncYSjq">
    <mxGraphModel dx="1418" dy="786" grid="1" gridSize="10" guides="1" tooltips="1" connect="1" arrows="1" fold="1" page="1" pageScale="1" pageWidth="850" pageHeight="1100" math="0" shadow="0">
      <root>
        <mxCell id="0" />
        <mxCell id="1" parent="0" />
        <mxCell id="17fYXk_5-HlalE9XypgH-1" value="Client" style="shape=person;html=1;" vertex="1" parent="1">
          <mxGeometry x="45" y="190" width="80" height="80" as="geometry" />
        </mxCell>
        <mxCell id="17fYXk_5-HlalE9XypgH-2" value="Chatbot&amp;nbsp;&lt;div&gt;Client&lt;/div&gt;" style="rounded=1;fillColor=#FFF2CC;strokeColor=#D6B656;html=1;" vertex="1" parent="1">
          <mxGeometry x="215" y="190" width="140" height="80" as="geometry" />
        </mxCell>
        <mxCell id="17fYXk_5-HlalE9XypgH-3" value="Chatbot&amp;nbsp;&lt;div&gt;Server&lt;/div&gt;" style="rounded=1;fillColor=#FFF2CC;strokeColor=#D6B656;html=1;" vertex="1" parent="1">
          <mxGeometry x="455" y="190" width="140" height="80" as="geometry" />
        </mxCell>
        <mxCell id="17fYXk_5-HlalE9XypgH-4" value="Baza de Date&amp;nbsp;&lt;div&gt;a utilizatorului&lt;/div&gt;" style="shape=cylinder;fillColor=#FFF2CC;strokeColor=#D6B656;html=1;" vertex="1" parent="1">
          <mxGeometry x="675" y="180" width="130" height="100" as="geometry" />
        </mxCell>
        <mxCell id="17fYXk_5-HlalE9XypgH-5" value="Zevo STT API" style="rounded=1;fillColor=#F8CECC;strokeColor=#B85450;html=1;" vertex="1" parent="1">
          <mxGeometry x="215" y="60" width="140" height="80" as="geometry" />
        </mxCell>
        <mxCell id="17fYXk_5-HlalE9XypgH-6" value="Zevo TTS API" style="rounded=1;fillColor=#F8CECC;strokeColor=#B85450;html=1;" vertex="1" parent="1">
          <mxGeometry x="215" y="320" width="140" height="80" as="geometry" />
        </mxCell>
        <mxCell id="17fYXk_5-HlalE9XypgH-7" style="edgeStyle=elbowEdgeStyle;rounded=0;orthogonalLoop=1;" edge="1" parent="1" source="17fYXk_5-HlalE9XypgH-1" target="17fYXk_5-HlalE9XypgH-2">
          <mxGeometry relative="1" as="geometry">
            <Array as="points">
              <mxPoint x="175" y="230" />
            </Array>
          </mxGeometry>
        </mxCell>
        <mxCell id="17fYXk_5-HlalE9XypgH-8" value="" style="edgeStyle=elbowEdgeStyle;rounded=0;orthogonalLoop=1;html=1;" edge="1" parent="1" source="17fYXk_5-HlalE9XypgH-2" target="17fYXk_5-HlalE9XypgH-3">
          <mxGeometry y="-10" relative="1" as="geometry">
            <Array as="points">
              <mxPoint x="415" y="210" />
            </Array>
            <mxPoint as="offset" />
          </mxGeometry>
        </mxCell>
        <mxCell id="17fYXk_5-HlalE9XypgH-10" value="întrebări text" style="text;html=1;align=center;verticalAlign=middle;resizable=0;points=[];autosize=1;strokeColor=none;fillColor=none;" vertex="1" parent="1">
          <mxGeometry x="355" y="180" width="90" height="30" as="geometry" />
        </mxCell>
        <mxCell id="17fYXk_5-HlalE9XypgH-11" value="răspunsuri text" style="text;html=1;align=center;verticalAlign=middle;resizable=0;points=[];autosize=1;strokeColor=none;fillColor=none;" vertex="1" parent="1">
          <mxGeometry x="355" y="240" width="100" height="30" as="geometry" />
        </mxCell>
        <mxCell id="17fYXk_5-HlalE9XypgH-12" value="" style="endArrow=classic;html=1;rounded=0;entryX=1.014;entryY=0.625;entryDx=0;entryDy=0;entryPerimeter=0;" edge="1" parent="1" target="17fYXk_5-HlalE9XypgH-2">
          <mxGeometry width="50" height="50" relative="1" as="geometry">
            <mxPoint x="455" y="240" as="sourcePoint" />
            <mxPoint x="485" y="320" as="targetPoint" />
            <Array as="points">
              <mxPoint x="415" y="240" />
            </Array>
          </mxGeometry>
        </mxCell>
        <mxCell id="17fYXk_5-HlalE9XypgH-13" value="" style="endArrow=classic;html=1;rounded=0;entryX=0.75;entryY=1;entryDx=0;entryDy=0;exitX=0.75;exitY=0;exitDx=0;exitDy=0;" edge="1" parent="1" source="17fYXk_5-HlalE9XypgH-2" target="17fYXk_5-HlalE9XypgH-5">
          <mxGeometry width="50" height="50" relative="1" as="geometry">
            <mxPoint x="435" y="370" as="sourcePoint" />
            <mxPoint x="485" y="320" as="targetPoint" />
            <Array as="points" />
          </mxGeometry>
        </mxCell>
        <mxCell id="17fYXk_5-HlalE9XypgH-14" value="" style="endArrow=classic;html=1;rounded=0;entryX=0.25;entryY=0;entryDx=0;entryDy=0;exitX=0.25;exitY=1;exitDx=0;exitDy=0;" edge="1" parent="1" source="17fYXk_5-HlalE9XypgH-5" target="17fYXk_5-HlalE9XypgH-2">
          <mxGeometry width="50" height="50" relative="1" as="geometry">
            <mxPoint x="435" y="370" as="sourcePoint" />
            <mxPoint x="485" y="320" as="targetPoint" />
          </mxGeometry>
        </mxCell>
        <mxCell id="17fYXk_5-HlalE9XypgH-15" value="întrebări vocale" style="text;html=1;align=center;verticalAlign=middle;whiteSpace=wrap;rounded=0;" vertex="1" parent="1">
          <mxGeometry x="325" y="150" width="60" height="30" as="geometry" />
        </mxCell>
        <mxCell id="17fYXk_5-HlalE9XypgH-16" value="răspunsuri text" style="text;html=1;align=center;verticalAlign=middle;whiteSpace=wrap;rounded=0;" vertex="1" parent="1">
          <mxGeometry x="175" y="150" width="60" height="30" as="geometry" />
        </mxCell>
        <mxCell id="17fYXk_5-HlalE9XypgH-17" value="întrebari" style="text;html=1;align=center;verticalAlign=middle;whiteSpace=wrap;rounded=0;" vertex="1" parent="1">
          <mxGeometry x="135" y="200" width="60" height="30" as="geometry" />
        </mxCell>
        <mxCell id="17fYXk_5-HlalE9XypgH-18" value="și răspunsi vocale" style="text;html=1;align=center;verticalAlign=middle;whiteSpace=wrap;rounded=0;" vertex="1" parent="1">
          <mxGeometry x="135" y="240" width="60" height="30" as="geometry" />
        </mxCell>
        <mxCell id="17fYXk_5-HlalE9XypgH-19" value="" style="endArrow=classic;html=1;rounded=0;entryX=0.25;entryY=0;entryDx=0;entryDy=0;exitX=0.25;exitY=1;exitDx=0;exitDy=0;" edge="1" parent="1">
          <mxGeometry width="50" height="50" relative="1" as="geometry">
            <mxPoint x="324" y="270" as="sourcePoint" />
            <mxPoint x="324" y="320" as="targetPoint" />
            <Array as="points">
              <mxPoint x="324" y="270" />
            </Array>
          </mxGeometry>
        </mxCell>
        <mxCell id="17fYXk_5-HlalE9XypgH-20" value="" style="endArrow=classic;html=1;rounded=0;entryX=0.75;entryY=1;entryDx=0;entryDy=0;exitX=0.75;exitY=0;exitDx=0;exitDy=0;" edge="1" parent="1">
          <mxGeometry width="50" height="50" relative="1" as="geometry">
            <mxPoint x="245" y="320" as="sourcePoint" />
            <mxPoint x="245" y="270" as="targetPoint" />
            <Array as="points" />
          </mxGeometry>
        </mxCell>
        <mxCell id="17fYXk_5-HlalE9XypgH-21" value="răspunsuri vocale" style="text;html=1;align=center;verticalAlign=middle;whiteSpace=wrap;rounded=0;" vertex="1" parent="1">
          <mxGeometry x="185" y="280" width="60" height="30" as="geometry" />
        </mxCell>
        <mxCell id="17fYXk_5-HlalE9XypgH-22" value="întrebari text" style="text;html=1;align=center;verticalAlign=middle;whiteSpace=wrap;rounded=0;" vertex="1" parent="1">
          <mxGeometry x="325" y="280" width="60" height="30" as="geometry" />
        </mxCell>
        <mxCell id="17fYXk_5-HlalE9XypgH-24" value="" style="endArrow=classic;html=1;rounded=0;entryX=1;entryY=0.75;entryDx=0;entryDy=0;exitX=0;exitY=0.7;exitDx=0;exitDy=0;" edge="1" parent="1" source="17fYXk_5-HlalE9XypgH-4" target="17fYXk_5-HlalE9XypgH-3">
          <mxGeometry width="50" height="50" relative="1" as="geometry">
            <mxPoint x="400" y="430" as="sourcePoint" />
            <mxPoint x="450" y="380" as="targetPoint" />
          </mxGeometry>
        </mxCell>
        <mxCell id="17fYXk_5-HlalE9XypgH-25" value="" style="endArrow=classic;html=1;rounded=0;entryX=0;entryY=0.3;entryDx=0;entryDy=0;exitX=1;exitY=0.25;exitDx=0;exitDy=0;" edge="1" parent="1" source="17fYXk_5-HlalE9XypgH-3" target="17fYXk_5-HlalE9XypgH-4">
          <mxGeometry width="50" height="50" relative="1" as="geometry">
            <mxPoint x="400" y="430" as="sourcePoint" />
            <mxPoint x="450" y="380" as="targetPoint" />
          </mxGeometry>
        </mxCell>
      </root>
    </mxGraphModel>
  </diagram>
</mxfile>
